<?xml version="1.0" encoding="UTF-8" standalone="no"?>
<!DOCTYPE svg PUBLIC "-//W3C//DTD SVG 1.1//EN" "http://www.w3.org/Graphics/SVG/1.1/DTD/svg11.dtd">
<svg width="100%" height="100%" viewBox="0 0 40 20" version="1.1" xmlns="http://www.w3.org/2000/svg" xmlns:xlink="http://www.w3.org/1999/xlink" xml:space="preserve" xmlns:serif="http://www.serif.com/" style="fill-rule:evenodd;clip-rule:evenodd;stroke-linecap:round;stroke-linejoin:round;stroke-miterlimit:1.5;">
    <g transform="matrix(1,0,0,1,-133.418,-115.946)">
        <g>
            <g transform="matrix(0.404246,0,0,0.38404,97.3708,88.1787)">
                <path d="M162.732,91.286C164.586,91.286 166.364,92.061 167.675,93.441C168.986,94.822 169.723,96.693 169.723,98.645C169.723,105.2 169.723,114.503 169.723,119.492C169.723,120.416 169.375,121.301 168.754,121.954C168.134,122.607 167.293,122.974 166.415,122.974C164.912,122.974 163.138,122.974 161.636,122.974C160.763,122.974 159.926,122.609 159.308,121.959C158.691,121.309 158.344,120.428 158.344,119.508C158.344,111.287 158.344,91.286 158.344,91.286L162.732,91.286Z" style="fill:rgb(255,124,71);stroke:black;stroke-width:2.54px;"/>
            </g>
            <g transform="matrix(0.418311,0,0,0.311652,88.6544,94.8713)">
                <rect x="158.344" y="91.286" width="11.379" height="31.688" style="fill:rgb(255,124,71);stroke:rgb(6,2,1);stroke-width:2.71px;"/>
            </g>
            <g transform="matrix(0.404246,0,0,0.378991,84.5324,88.4585)">
                <path d="M169.723,91.286L169.723,119.735C169.723,121.524 168.363,122.974 166.686,122.974C165.245,122.974 163.51,122.974 161.997,122.974C159.98,122.974 158.344,121.229 158.344,119.077C158.344,114.163 158.344,105.593 158.344,99.265C158.344,94.858 161.693,91.286 165.825,91.286C167.962,91.286 169.723,91.286 169.723,91.286Z" style="fill:rgb(255,124,71);stroke:black;stroke-width:2.55px;"/>
            </g>
            <g transform="matrix(0.353392,-0.327819,0.26227,0.282729,77.5412,152.624)">
                <ellipse cx="180.357" cy="108.972" rx="5.51" ry="4.215" style="fill:rgb(255,124,71);stroke:rgb(4,1,0);stroke-width:2.29px;"/>
            </g>
            <g transform="matrix(0.242315,0.0153618,-0.0179452,0.283066,126.951,87.859)">
                <path d="M80.729,96.613C87.958,96.491 90.082,108.312 90.082,114.06C90.082,119.807 86.06,120.316 80.721,120.316C75.381,120.316 70.631,119.67 70.631,113.923C70.631,108.175 73.96,96.728 80.729,96.613Z" style="fill:rgb(255,124,71);stroke:black;stroke-width:3.79px;"/>
            </g>
            <g transform="matrix(0.0901168,-0.225459,0.263374,0.105272,101.277,130.409)">
                <path d="M80.729,96.613C87.958,96.491 90.082,108.312 90.082,114.06C90.082,119.807 86.06,120.316 80.721,120.316C75.381,120.316 70.631,119.67 70.631,113.923C70.631,108.175 73.96,96.728 80.729,96.613Z" style="fill:rgb(255,124,71);stroke:black;stroke-width:3.79px;"/>
            </g>
            <g transform="matrix(0.421387,-0.203736,0.217076,0.448978,63.7318,102.557)">
                <ellipse cx="131.147" cy="110.844" rx="8.042" ry="8.761" style="fill:rgb(255,124,71);stroke:black;stroke-width:2.07px;"/>
            </g>
        </g>
    </g>
</svg>
