<?xml version="1.0" encoding="UTF-8" standalone="no"?>
<!DOCTYPE svg PUBLIC "-//W3C//DTD SVG 1.1//EN" "http://www.w3.org/Graphics/SVG/1.1/DTD/svg11.dtd">
<svg width="100%" height="100%" viewBox="0 0 18 20" version="1.1" xmlns="http://www.w3.org/2000/svg" xmlns:xlink="http://www.w3.org/1999/xlink" xml:space="preserve" xmlns:serif="http://www.serif.com/" style="fill-rule:evenodd;clip-rule:evenodd;stroke-linejoin:round;stroke-miterlimit:2;">
    <g transform="matrix(1,0,0,1,-59.2001,-114.319)">
        <g>
            <g transform="matrix(0.322679,-0.194566,0.168255,0.32984,18.2497,99.0309)">
                <path d="M80.729,96.613C87.958,96.491 89.981,108.306 90.082,114.06C90.256,123.931 86.06,120.316 80.721,120.316C75.381,120.316 70.631,119.67 70.631,113.923C70.631,108.175 73.96,96.728 80.729,96.613Z" style="fill:rgb(255,124,71);"/>
            </g>
            <g transform="matrix(-0.322679,-0.194566,-0.168255,0.32984,117.317,98.5005)">
                <path d="M80.729,96.613C87.958,96.491 89.981,108.306 90.082,114.06C90.256,123.931 86.06,120.316 80.721,120.316C75.381,120.316 70.631,119.67 70.631,113.923C70.631,108.175 73.96,96.728 80.729,96.613Z" style="fill:rgb(255,124,71);"/>
            </g>
            <g transform="matrix(0.000184288,0.297105,-0.491813,0.00030506,120.303,73.7433)">
                <path d="M169.723,91.286L169.723,122.974L166.868,122.974C164.607,122.974 162.439,122.432 160.84,121.466C159.242,120.5 158.344,119.19 158.344,117.825C158.344,111.981 158.344,102.497 158.344,96.59C158.344,95.183 159.269,93.834 160.915,92.839C162.562,91.845 164.795,91.286 167.124,91.286C168.631,91.286 169.723,91.286 169.723,91.286Z" style="fill:rgb(255,124,71);"/>
            </g>
            <g transform="matrix(0.000184288,0.297105,-0.491813,0.00030506,120.292,78.3398)">
                <rect x="158.344" y="91.286" width="11.379" height="31.688" style="fill:rgb(255,124,71);"/>
            </g>
            <g transform="matrix(0.000184288,0.297105,-0.491813,0.00030506,120.311,82.9662)">
                <path d="M162.353,91.286C166.424,91.286 169.723,93.279 169.723,95.738C169.723,101.615 169.723,111.93 169.723,118.039C169.723,119.348 168.862,120.603 167.33,121.529C165.798,122.454 163.72,122.974 161.554,122.974C159.74,122.974 158.344,122.974 158.344,122.974L158.344,91.286L162.353,91.286Z" style="fill:rgb(255,124,71);"/>
            </g>
            <g transform="matrix(0.702782,0.702782,-0.716017,0.716017,107.322,-36.3885)">
                <path d="M92.364,143.771L92.364,145.267C92.364,145.679 92.029,146.014 91.616,146.014L90.05,146.014C89.695,146.014 89.398,145.767 89.321,145.436C89.306,145.351 89.323,145.264 89.37,145.192C89.513,144.957 89.936,144.335 89.937,144.332C89.971,144.079 90.395,143.713 90.677,143.636C90.682,143.635 91.283,143.125 91.583,143.032C91.627,143.021 91.672,143.017 91.718,143.022C92.082,143.079 92.364,143.392 92.364,143.771Z"/>
            </g>
        </g>
    </g>
</svg>
