<?xml version="1.0" encoding="UTF-8" standalone="no"?>
<!DOCTYPE svg PUBLIC "-//W3C//DTD SVG 1.1//EN" "http://www.w3.org/Graphics/SVG/1.1/DTD/svg11.dtd">
<svg width="100%" height="100%" viewBox="0 0 18 20" version="1.1" xmlns="http://www.w3.org/2000/svg" xmlns:xlink="http://www.w3.org/1999/xlink" xml:space="preserve" xmlns:serif="http://www.serif.com/" style="fill-rule:evenodd;clip-rule:evenodd;stroke-linejoin:round;stroke-miterlimit:2;">
    <g transform="matrix(1,0,0,1,-106.464,-125.339)">
        <g>
            <g transform="matrix(0.311045,-0.21267,0.193421,0.331009,63.8138,110.929)">
                <path d="M80.729,96.613C87.958,96.491 90.082,108.312 90.082,114.06C90.082,119.807 86.06,120.316 80.721,120.316C75.381,120.316 70.631,119.67 70.631,113.923C70.631,108.175 73.96,96.728 80.729,96.613Z" style="fill:rgb(255,124,71);"/>
            </g>
            <g transform="matrix(0.311032,0.212692,-0.193441,0.330995,116.491,76.8003)">
                <path d="M80.729,96.613C87.958,96.491 90.082,108.312 90.082,114.06C90.082,119.807 86.06,120.316 80.721,120.316C75.381,120.316 70.631,119.67 70.631,113.923C70.631,108.175 73.96,96.728 80.729,96.613Z" style="fill:rgb(255,124,71);"/>
            </g>
            <g transform="matrix(-0.00386831,0.325775,-0.494509,-0.00957863,168.79,81.1574)">
                <path d="M169.723,91.286L169.723,122.974L169.722,122.974C166.705,122.974 161.491,120.567 159.621,118.338C157.71,116.06 157.196,114.984 156.42,112.239C155.513,109.034 155.693,104.909 156.482,102.024C157.231,99.282 157.472,98.66 159.22,96.448C161.007,94.186 166.705,91.286 169.722,91.286C169.723,91.286 169.723,91.286 169.723,91.286Z" style="fill:rgb(255,124,71);"/>
            </g>
            <g transform="matrix(0.000317296,-0.400943,0.436685,0.000563736,68.2076,208.793)">
                <path d="M169.723,91.286L169.723,122.974L169.722,122.974C166.705,122.974 161.051,113.492 160.167,110.475C159.23,107.278 159.537,106.087 160.326,103.203C161.075,100.461 166.705,91.286 169.722,91.286C169.723,91.286 169.723,91.286 169.723,91.286Z" style="fill:rgb(255,124,71);"/>
            </g>
            <g transform="matrix(-0.00388642,0.3273,-0.494509,-0.00957863,168.778,85.3702)">
                <path d="M169.828,92.641L170.135,121.491L158.344,122.974L158.344,91.286L169.828,92.641Z" style="fill:rgb(255,124,71);"/>
            </g>
            <g transform="matrix(0.702782,0.702782,-0.716017,0.716017,154.731,-25.3485)">
                <path d="M92.364,143.771L92.364,145.267C92.364,145.679 92.029,146.014 91.616,146.014L90.05,146.014C89.695,146.014 89.398,145.767 89.321,145.436C89.306,145.351 89.323,145.264 89.37,145.192C89.513,144.957 89.936,144.335 89.937,144.332C89.971,144.079 90.395,143.713 90.677,143.636C90.682,143.635 91.283,143.125 91.583,143.032C91.627,143.021 91.672,143.017 91.718,143.022C92.082,143.079 92.364,143.392 92.364,143.771Z"/>
            </g>
        </g>
    </g>
</svg>
