<svg id="Layer_1" data-name="Layer 1" xmlns="http://www.w3.org/2000/svg" viewBox="0 0 419.14 403.61"><title>paws-up</title><path d="M281.78,0c-.88,0-1.79.05-2.69.12-35.82,6.19-55.52,44.07-58.37,77.47-4.17,30.31,9.18,69.27,42.47,76.07a32.45,32.45,0,0,0,14.56-.79c40.08-13.43,58-60.9,52.22-100.22C328.28,27.26,309.14-.35,281.78,0ZM129.9,1.62C107.62,2.17,90.27,24.76,86.74,46c-7.44,42.07,11.7,94.35,55.53,107.66a34.35,34.35,0,0,0,12.5.34c29.63-4.93,42.18-38.15,40.94-65-.89-35.37-19.26-76.27-56-86.21a34.7,34.7,0,0,0-9.81-1.19Zm248.94,119.5c-38.53,2.31-64.95,40.76-68.72,76.66-5.1,25.9,8.71,60.53,38.25,62.6,41.2-.51,69.3-44.53,70.47-82.41C421.45,152.92,406.69,122.51,378.84,121.12ZM41.56,129.66C25.17,129.52,9,139.34,3.68,156c-14.29,44.58,14.41,101,61.63,110.41,19.71,3.37,37-11.76,41.91-30C117.57,197.5,96.3,152.28,60.31,134.6a39,39,0,0,0-18.75-4.94Zm172.75,79.93c-32.14.07-64.78,16.38-85.59,40.66-22.48,28.3-40.89,61.23-48.1,96.94-8.75,25.7,11.09,55.29,38.56,55.47,33.06.92,61.47-21.79,94.35-23.47,27.89-4.25,52.86,10.25,77.94,19.75,21.35,9.13,50.85,5.63,61.75-17.35,8.57-23.41-4.05-48.39-14.5-69.18-21.33-33.76-44.17-69.24-79.13-90.32a84.8,84.8,0,0,0-45.28-12.5Z" transform="translate(0 0)"/></svg>