<?xml version="1.0" encoding="UTF-8" standalone="no"?>
<!DOCTYPE svg PUBLIC "-//W3C//DTD SVG 1.1//EN" "http://www.w3.org/Graphics/SVG/1.1/DTD/svg11.dtd">
<svg width="100%" height="100%" viewBox="0 0 420 404" version="1.1" xmlns="http://www.w3.org/2000/svg" xmlns:xlink="http://www.w3.org/1999/xlink" xml:space="preserve" xmlns:serif="http://www.serif.com/" style="fill-rule:evenodd;clip-rule:evenodd;stroke-linejoin:round;stroke-miterlimit:2;">
    <path d="M281.78,0C280.9,0 279.99,0.05 279.09,0.12C243.27,6.31 223.57,44.19 220.72,77.59C216.55,107.9 229.9,146.86 263.19,153.66C268.04,154.505 273.02,154.234 277.75,152.87C317.83,139.44 335.75,91.97 329.97,52.65C328.28,27.26 309.14,-0.35 281.78,0ZM129.9,1.62C107.62,2.17 90.27,24.76 86.74,46C79.3,88.07 98.44,140.35 142.27,153.66C146.381,154.537 150.618,154.652 154.77,154C184.4,149.07 196.95,115.85 195.71,89C194.82,53.63 176.45,12.73 139.71,2.79C136.514,1.927 133.21,1.527 129.9,1.6L129.9,1.62ZM378.84,121.12C340.31,123.43 313.89,161.88 310.12,197.78C305.02,223.68 318.83,258.31 348.37,260.38C389.57,259.87 417.67,215.85 418.84,177.97C421.45,152.92 406.69,122.51 378.84,121.12ZM41.56,129.66C25.17,129.52 9,139.34 3.68,156C-10.61,200.58 18.09,257 65.31,266.41C85.02,269.78 102.31,254.65 107.22,236.41C117.57,197.5 96.3,152.28 60.31,134.6C54.576,131.401 48.126,129.702 41.56,129.66ZM214.31,209.59C182.17,209.66 149.53,225.97 128.72,250.25C106.24,278.55 87.83,311.48 80.62,347.19C71.87,372.89 91.71,402.48 119.18,402.66C152.24,403.58 180.65,380.87 213.53,379.19C241.42,374.94 266.39,389.44 291.47,398.94C312.82,408.07 342.32,404.57 353.22,381.59C361.79,358.18 349.17,333.2 338.72,312.41C317.39,278.65 294.55,243.17 259.59,222.09C245.976,213.744 230.278,209.41 214.31,209.59Z" style="fill:rgb(128,0,128);fill-rule:nonzero;"/>
    <g id="Layer1">
    </g>
</svg>
