<?xml version="1.0" encoding="utf-8"?>
<!-- Generator: Adobe Illustrator 23.0.4, SVG Export Plug-In . SVG Version: 6.00 Build 0)  -->
<svg version="1.1" id="Layer_1" xmlns="http://www.w3.org/2000/svg" xmlns:xlink="http://www.w3.org/1999/xlink" x="0px" y="0px"
	 viewBox="0 0 419.1 403.6" style="enable-background:new 0 0 419.1 403.6;" xml:space="preserve">
<path d="M137.4,403.6c0.9,0,1.8-0.1,2.7-0.1c35.8-6.2,55.5-44.1,58.4-77.5c4.2-30.3-9.2-69.3-42.5-76.1c-4.8-0.9-9.8-0.5-14.6,0.8
	c-40.1,13.4-58,60.9-52.2,100.2C90.9,376.3,110,404,137.4,403.6L137.4,403.6z M289.2,402c22.3-0.5,39.6-23.1,43.2-44.4
	c7.4-42.1-11.7-94.4-55.5-107.7c-4.1-0.9-8.4-1-12.5-0.3c-29.6,4.9-42.2,38.2-40.9,65c0.9,35.4,19.3,76.3,56,86.2
	C282.8,401.7,286.1,402.1,289.2,402L289.2,402z M40.3,282.5c38.5-2.3,65-40.8,68.7-76.7c5.1-25.9-8.7-60.5-38.2-62.6
	c-41.2,0.5-69.3,44.5-70.5,82.4C-2.3,250.7,12.4,281.1,40.3,282.5z M377.6,273.9c16.4,0.1,32.5-9.7,37.9-26.3
	c14.3-44.6-14.4-101-61.6-110.4c-19.7-3.4-37,11.8-41.9,30c-10.4,38.9,10.9,84.2,46.9,101.8C364.7,272.3,371.2,273.9,377.6,273.9
	L377.6,273.9z M204.8,194c32.1-0.1,64.8-16.4,85.6-40.7c22.5-28.3,40.9-61.2,48.1-96.9c8.8-25.7-11.1-55.3-38.6-55.5
	c-33.1-0.9-61.5,21.8-94.3,23.5c-27.9,4.3-52.9-10.3-77.9-19.8C106.3-4.5,76.8-1,65.9,22c-8.6,23.4,4,48.4,14.5,69.2
	c21.3,33.8,44.2,69.2,79.1,90.3C173.6,190.2,189.1,194,204.8,194L204.8,194z"/>
</svg>
